<svg width="247" height="326" viewBox="0 0 247 326" fill="none" xmlns="http://www.w3.org/2000/svg">
<circle cx="127.081" cy="103.298" r="32.5105" transform="rotate(-14.0673 127.081 103.298)" fill="#C6A75E"/>
<path d="M160.285 145.75C159.18 141.431 154.855 138.694 150.537 139.803C141.111 142.223 125.809 146.559 119.592 150.613C96.0868 165.944 106.711 283.967 144.468 297.779C182.226 311.591 254.118 266.211 240.953 263.293C228.946 260.632 195.1 236.639 176.886 194.812C168.433 175.399 162.944 156.139 160.285 145.75Z" fill="#C6A75E"/>
<path d="M80.932 90.3259C86.2292 91.9817 80.7291 98.5085 80.7291 98.5085C80.7291 98.5085 38.7219 97.4664 17.3904 70.2523C10.3413 61.2592 17.888 43.2479 29.311 43.5313C59.5473 44.2814 39.2223 77.2874 80.932 90.3259Z" fill="#C6A75E"/>
</svg>
