<?xml version="1.0" encoding="UTF-8"?>
<svg xmlns="http://www.w3.org/2000/svg" width="1024" height="1024" viewBox="0 0 1024 1024">
  <path fill="#DFA723" fill-rule="evenodd" d="M 537.50 862.12 L 503.50 862.12 L 479.00 860.12 L 449.25 855.38 L 410.00 845.12 L 370.50 830.12 L 335.25 812.12 L 315.50 800.12 L 292.00 783.12 L 254.75 750.12 L 224.62 715.75 L 198.62 677.50 L 188.62 659.75 L 177.62 636.50 L 168.62 613.50 L 160.62 588.25 L 152.62 552.00 L 148.62 516.00 L 149.62 461.50 L 154.62 426.00 L 166.62 382.00 L 181.62 345.00 L 199.62 311.50 L 222.62 278.00 L 245.88 250.75 L 267.75 229.62 L 299.25 204.62 L 334.75 182.62 L 350.00 174.62 L 376.25 163.62 L 414.50 151.62 L 450.00 144.62 L 488.50 141.38 L 535.00 142.62 L 573.25 148.62 L 611.00 158.62 L 642.50 170.62 L 677.88 189.00 L 677.88 190.50 L 676.50 190.88 L 658.50 181.12 L 625.50 169.12 L 607.75 164.12 L 587.25 160.12 L 550.50 156.38 L 519.00 156.12 L 478.25 160.38 L 458.50 164.38 L 431.00 172.38 L 409.50 180.12 L 385.00 191.38 L 366.25 201.38 L 341.50 217.38 L 306.75 246.12 L 289.38 263.75 L 271.12 285.50 L 247.38 321.25 L 234.12 347.25 L 225.38 369.00 L 216.12 397.25 L 211.38 418.00 L 206.12 461.25 L 205.88 488.50 L 208.12 518.25 L 213.38 549.00 L 222.12 580.00 L 232.12 606.25 L 241.75 624.62 L 261.62 586.75 L 287.62 550.00 L 300.62 534.75 L 317.75 517.62 L 335.00 502.62 L 353.75 488.62 L 389.50 466.62 L 429.50 448.62 L 465.50 436.62 L 527.25 419.62 L 567.75 404.62 L 600.50 387.38 L 624.00 369.62 L 641.38 351.25 L 650.38 338.25 L 659.62 320.00 L 665.12 301.25 L 662.75 301.12 L 633.00 315.12 L 613.50 322.12 L 594.00 327.38 L 591.62 325.25 L 586.12 306.00 L 618.50 294.62 L 649.75 279.38 L 680.25 260.38 L 694.25 249.62 L 713.00 233.38 L 734.62 211.25 L 753.38 186.25 L 761.38 172.50 L 768.62 155.75 L 770.50 155.12 L 786.50 168.62 L 799.12 181.50 L 811.12 196.00 L 819.12 208.00 L 833.12 235.25 L 838.12 251.50 L 840.12 265.75 L 837.75 266.38 L 821.00 263.38 L 801.00 261.62 L 769.75 262.88 L 736.00 269.38 L 722.50 274.12 L 706.88 281.50 L 708.12 317.50 L 706.12 345.75 L 700.12 383.25 L 691.12 413.50 L 682.12 436.25 L 666.12 466.25 L 649.12 490.75 L 632.12 510.00 L 630.12 541.25 L 623.12 585.50 L 614.12 624.25 L 604.12 657.75 L 590.12 695.50 L 574.12 730.25 L 554.88 765.50 L 531.88 803.00 L 540.50 804.12 L 574.00 803.38 L 614.00 796.62 L 655.75 784.38 L 691.50 768.38 L 712.50 756.38 L 730.25 744.38 L 751.50 727.62 L 769.25 711.62 L 795.62 682.25 L 817.38 651.25 L 838.62 611.25 L 850.62 580.25 L 855.62 563.75 L 861.38 537.75 L 864.38 518.00 L 866.38 492.75 L 865.62 449.75 L 859.38 404.75 L 847.62 363.50 L 840.62 345.50 L 828.62 322.50 L 829.25 320.12 L 847.12 351.75 L 861.12 385.25 L 872.12 422.00 L 879.12 459.00 L 882.12 501.00 L 881.12 537.25 L 875.12 578.50 L 865.12 616.50 L 852.12 650.25 L 841.12 672.75 L 830.12 691.75 L 811.12 719.50 L 795.12 739.00 L 774.00 761.12 L 737.25 792.12 L 715.25 807.12 L 692.75 820.12 L 663.00 834.12 L 639.50 843.12 L 609.00 852.12 L 590.00 856.12 L 563.00 860.12 L 537.50 862.12 Z M 501.75 402.12 L 490.50 402.12 L 470.75 398.12 L 460.75 394.12 L 445.50 384.12 L 433.88 372.00 L 426.88 361.75 L 421.62 350.25 L 417.62 334.50 L 417.62 317.75 L 420.62 303.25 L 427.62 286.75 L 432.62 279.50 L 442.25 268.62 L 453.00 260.62 L 469.00 252.62 L 485.25 248.62 L 504.75 248.62 L 516.25 250.62 L 527.75 254.62 L 544.75 264.62 L 556.12 275.25 L 565.12 288.25 L 571.12 302.25 L 574.12 317.50 L 574.12 330.75 L 570.12 350.00 L 563.88 363.50 L 555.12 376.00 L 545.75 385.12 L 532.00 394.12 L 515.50 400.12 L 501.75 402.12 Z M 343.38 741.75 L 366.38 699.75 L 382.62 663.25 L 421.75 644.38 L 453.50 625.38 L 497.75 594.38 L 547.25 553.62 L 584.62 516.25 L 601.38 496.25 L 625.38 462.25 L 641.12 435.50 L 641.00 433.62 L 639.38 434.25 L 619.88 459.00 L 587.00 493.12 L 537.00 537.12 L 500.75 564.12 L 469.00 585.12 L 400.75 623.38 L 399.00 623.62 L 398.62 622.00 L 408.38 594.00 L 413.62 573.75 L 416.38 558.25 L 416.62 554.25 L 415.50 553.12 L 398.00 554.38 L 376.50 558.38 L 352.50 565.38 L 332.75 573.12 L 313.00 582.38 L 291.75 594.38 L 272.25 607.38 L 243.88 629.00 L 254.38 650.00 L 265.38 666.50 L 288.12 695.25 L 316.50 722.62 L 343.38 741.75 Z"/>
</svg>
