<svg width="1107" height="387" viewBox="0 0 1107 387" fill="none" xmlns="http://www.w3.org/2000/svg">
<path fill-rule="evenodd" clip-rule="evenodd" d="M208.887 387H190.624L177.464 385.926L161.484 383.381L140.4 377.872L119.183 369.818L100.248 360.153L89.6397 353.709L77.0167 344.581L57.0078 326.862L40.8234 308.407L26.8575 287.869L21.486 278.338L15.5774 265.854L10.743 253.504L6.44581 239.946L2.1486 220.482L0 201.152L0.537151 171.888L3.2229 152.826L9.66871 129.2L17.726 109.333L27.3947 91.3456L39.7491 73.3579L52.2433 58.726L63.9908 47.3803L80.911 33.9566L99.9798 22.1437L108.171 17.8482L122.272 11.9417L142.818 5.49834L161.886 1.73971L182.567 0L207.544 0.66581L228.09 3.8875L248.368 9.25698L265.288 15.7004L284.292 25.5695V26.3749L283.551 26.5789L273.882 21.3383L256.156 14.8949L246.622 12.2102L235.61 10.0624L215.87 8.05422L198.95 7.91461L177.061 10.202L166.452 12.3498L151.681 16.6454L140.132 20.8014L126.972 26.8474L116.9 32.2169L103.606 40.8081L84.9396 56.2399L75.6093 65.7063L65.801 77.385L53.049 96.5809L45.9264 110.542L41.2317 122.22L36.2577 137.389L33.7116 148.531L30.8862 171.754L30.7572 186.385L31.9605 202.36L34.7859 218.871L39.4806 235.516L44.8521 249.611L50.0248 259.475L60.698 239.141L74.6639 219.408L81.6469 211.219L90.8483 202.021L100.114 193.967L110.186 186.45L129.389 174.637L150.875 164.972L170.212 158.529L203.381 149.4L225.136 141.346L242.728 132.089L255.351 122.553L264.686 112.689L269.521 105.709L274.484 95.9097L277.438 85.8419L276.165 85.7721L260.185 93.2894L249.711 97.048L239.236 99.8724L237.958 98.7287L235.003 88.3924L252.396 82.2819L269.182 74.0988L285.565 63.8968L293.085 58.1193L303.157 49.3992L314.77 37.5166L324.847 24.0929L329.144 16.7098L333.033 7.71594L334.043 7.37766L342.638 14.6265L349.416 21.5424L355.862 29.3281L360.159 35.7715L367.68 50.4033L370.365 59.1287L371.44 66.7802L370.167 67.1185L361.169 65.5077L350.426 64.5626L333.64 65.2392L315.512 68.7294L308.26 71.2745L299.87 75.2372L300.536 94.5673L299.461 109.736L296.239 129.872L291.404 146.114L286.57 158.33L277.975 174.438L268.844 187.594L259.712 197.93L258.638 214.709L254.878 238.469L250.044 259.276L244.672 277.264L237.152 297.534L228.558 316.193L218.223 335.12L205.868 355.256L210.499 355.857L228.493 355.46L249.979 351.83L272.405 345.258L291.608 336.666L302.888 330.223L312.423 323.78L323.837 314.78L333.372 306.189L347.536 290.419L359.225 273.774L370.634 252.296L377.08 235.65L379.765 226.791L382.859 212.83L384.471 202.225L385.545 188.667L385.137 165.579L381.785 141.416L375.468 119.267L371.708 109.602L365.262 97.252L365.601 95.9741L375.2 112.958L382.72 130.946L388.628 150.678L392.389 170.545L394 193.097L393.463 212.562L390.24 234.711L384.868 255.115L377.885 273.237L371.977 285.318L366.068 295.52L355.862 310.42L347.268 320.891L335.923 332.768L316.183 349.414L304.366 357.468L292.28 364.448L276.3 371.965L263.676 376.798L247.293 381.631L237.088 383.778L222.584 385.926L208.887 387ZM189.684 140.004H183.641L173.032 137.856L167.661 135.708L159.469 130.339L153.228 123.831L149.468 118.327L146.642 112.152L144.494 103.695V94.7015L146.105 86.9158L149.865 78.0561L152.551 74.1633L157.724 68.3213L163.498 64.0257L172.092 59.7301L180.821 57.5823H191.295L197.473 58.6562L203.65 60.804L212.781 66.1735L218.889 71.8812L223.723 78.8616L226.946 86.3788L228.558 94.5673V101.682L226.409 112.018L223.057 119.267L218.352 125.979L213.319 130.876L205.933 135.708L197.07 138.93L189.684 140.004ZM104.615 322.368L116.97 299.816L125.693 280.217L146.712 270.085L163.766 259.883L187.535 243.238L214.124 221.351L234.198 201.286L243.2 190.547L256.092 172.291L264.547 157.927L264.482 156.918L263.612 157.256L253.138 170.545L235.476 188.866L208.619 212.492L189.147 226.989L172.092 238.265L135.432 258.809L134.492 258.938L134.288 258.068L139.53 243.033L142.345 232.16L143.827 223.838L143.956 221.69L143.355 221.083L133.955 221.76L122.406 223.907L109.514 227.666L98.9055 231.822L88.2968 236.794L76.8824 243.238L66.4079 250.218L51.169 261.827L56.8091 273.103L62.7177 281.962L74.9325 297.399L90.1768 312.096L104.615 322.368Z" fill="#DFA723"/>
<path d="M462.36 310V207.8H498.48L519.48 261.7H522.28L543.14 207.8H579.96V310H554.2V222.78L558.26 223.06L531.94 289.42H508.28L481.82 223.06L486.16 222.78V310H462.36ZM650.839 312.8C641.506 312.8 633.386 311.213 626.479 308.04C619.573 304.773 613.833 300.527 609.259 295.3C604.686 289.98 601.279 284.24 599.039 278.08C596.799 271.92 595.679 265.947 595.679 260.16V257.08C595.679 250.64 596.846 244.34 599.179 238.18C601.513 231.927 605.013 226.28 609.679 221.24C614.346 216.2 620.086 212.187 626.899 209.2C633.806 206.213 641.786 204.72 650.839 204.72C659.799 204.72 667.686 206.213 674.499 209.2C681.406 212.187 687.193 216.2 691.859 221.24C696.526 226.28 700.026 231.927 702.359 238.18C704.786 244.34 705.999 250.64 705.999 257.08V260.16C705.999 265.947 704.833 271.92 702.499 278.08C700.259 284.24 696.853 289.98 692.279 295.3C687.706 300.527 681.966 304.773 675.059 308.04C668.153 311.213 660.079 312.8 650.839 312.8ZM650.839 288.44C655.319 288.44 659.333 287.693 662.879 286.2C666.426 284.707 669.459 282.607 671.979 279.9C674.499 277.193 676.413 274.067 677.719 270.52C679.026 266.88 679.679 262.96 679.679 258.76C679.679 254.28 678.979 250.22 677.579 246.58C676.273 242.94 674.359 239.813 671.839 237.2C669.319 234.587 666.286 232.58 662.739 231.18C659.193 229.78 655.226 229.08 650.839 229.08C646.359 229.08 642.346 229.78 638.799 231.18C635.253 232.58 632.219 234.587 629.699 237.2C627.179 239.813 625.266 242.94 623.959 246.58C622.653 250.22 621.999 254.28 621.999 258.76C621.999 262.96 622.653 266.88 623.959 270.52C625.266 274.067 627.179 277.193 629.699 279.9C632.219 282.607 635.253 284.707 638.799 286.2C642.346 287.693 646.359 288.44 650.839 288.44ZM721.715 310V206.96H747.755V310H721.715ZM783.315 310L754.615 266.6H782.895L813.275 310H783.315ZM741.175 278.64V258.62H765.675C768.755 258.62 771.415 258.013 773.655 256.8C775.895 255.587 777.622 253.86 778.835 251.62C780.142 249.38 780.795 246.767 780.795 243.78C780.795 240.7 780.142 238.04 778.835 235.8C777.622 233.56 775.895 231.833 773.655 230.62C771.415 229.407 768.755 228.8 765.675 228.8H741.175V206.96H764.135C773.002 206.96 780.655 208.313 787.095 211.02C793.535 213.633 798.482 217.553 801.935 222.78C805.389 227.913 807.115 234.307 807.115 241.96V244.2C807.115 251.853 805.342 258.247 801.795 263.38C798.342 268.42 793.395 272.247 786.955 274.86C780.609 277.38 773.002 278.64 764.135 278.64H741.175ZM874.375 312.8C865.041 312.8 856.921 311.213 850.015 308.04C843.108 304.773 837.368 300.527 832.795 295.3C828.221 289.98 824.815 284.24 822.575 278.08C820.335 271.92 819.215 265.947 819.215 260.16V257.08C819.215 250.64 820.381 244.34 822.715 238.18C825.048 231.927 828.548 226.28 833.215 221.24C837.881 216.2 843.621 212.187 850.435 209.2C857.341 206.213 865.321 204.72 874.375 204.72C883.335 204.72 891.221 206.213 898.035 209.2C904.941 212.187 910.728 216.2 915.395 221.24C920.061 226.28 923.561 231.927 925.895 238.18C928.321 244.34 929.535 250.64 929.535 257.08V260.16C929.535 265.947 928.368 271.92 926.035 278.08C923.795 284.24 920.388 289.98 915.815 295.3C911.241 300.527 905.501 304.773 898.595 308.04C891.688 311.213 883.615 312.8 874.375 312.8ZM874.375 288.44C878.855 288.44 882.868 287.693 886.415 286.2C889.961 284.707 892.995 282.607 895.515 279.9C898.035 277.193 899.948 274.067 901.255 270.52C902.561 266.88 903.215 262.96 903.215 258.76C903.215 254.28 902.515 250.22 901.115 246.58C899.808 242.94 897.895 239.813 895.375 237.2C892.855 234.587 889.821 232.58 886.275 231.18C882.728 229.78 878.761 229.08 874.375 229.08C869.895 229.08 865.881 229.78 862.335 231.18C858.788 232.58 855.755 234.587 853.235 237.2C850.715 239.813 848.801 242.94 847.495 246.58C846.188 250.22 845.535 254.28 845.535 258.76C845.535 262.96 846.188 266.88 847.495 270.52C848.801 274.067 850.715 277.193 853.235 279.9C855.755 282.607 858.788 284.707 862.335 286.2C865.881 287.693 869.895 288.44 874.375 288.44ZM945.251 310V207.8H987.951L1021.97 289.28H1026.87L1024.07 291.8V207.8H1048.43V310H1005.45L971.431 228.52H966.531L969.331 226V310H945.251ZM1069.4 310V207.8H1095.44V310H1069.4Z" fill="white"/>
<path d="M483.824 169V84H503.136V169H483.824ZM455.128 86.72V69.72H531.832V86.72H455.128ZM547.52 169V69.72H566.832V169H547.52ZM591.607 169V69.72H610.511V169H591.607ZM607.791 169V152.68H652.807V169H607.791ZM607.791 126.704V110.384H649.271V126.704H607.791ZM607.791 86.04V69.72H651.719V86.04H607.791ZM672.623 169V69.72H704.311L746.063 152.952H750.551L747.831 155.4V69.72H766.055V169H734.231L692.479 85.768H687.855L690.575 83.32V169H672.623ZM807.152 169.544V151.592H827.688C832.856 151.592 837.435 150.821 841.424 149.28C845.504 147.648 848.95 145.381 851.76 142.48C854.571 139.579 856.702 136.179 858.152 132.28C859.694 128.291 860.464 123.893 860.464 119.088C860.464 114.101 859.694 109.659 858.152 105.76C856.702 101.771 854.571 98.3707 851.76 95.56C848.95 92.7493 845.504 90.6187 841.424 89.168C837.435 87.7173 832.856 86.992 827.688 86.992H807.152V69.04H826.464C835.44 69.04 843.283 70.3547 849.992 72.984C856.702 75.6133 862.278 79.24 866.72 83.864C871.163 88.3973 874.472 93.6107 876.648 99.504C878.915 105.307 880.048 111.336 880.048 117.592V120.584C880.048 126.568 878.915 132.461 876.648 138.264C874.472 144.067 871.163 149.325 866.72 154.04C862.278 158.755 856.702 162.517 849.992 165.328C843.283 168.139 835.44 169.544 826.464 169.544H807.152ZM790.56 169.544V69.04H809.872V169.544H790.56ZM883.698 169L917.562 69.72H949.114L983.93 169H964.074L934.562 82.912L941.498 85.904H924.498L931.57 82.912L903.01 169H883.698ZM907.362 142.616L913.482 126.296H953.738L959.722 142.616H907.362Z" fill="white"/>
</svg>
