<svg width="1025" height="342" viewBox="0 0 1025 342" fill="none" xmlns="http://www.w3.org/2000/svg">
<circle cx="904.972" cy="103.298" r="32.5105" transform="rotate(-14.0673 904.972 103.298)" fill="#C6A75E"/>
<path d="M938.176 145.75C937.071 141.431 932.746 138.694 928.428 139.803C919.003 142.223 903.701 146.559 897.484 150.613C873.978 165.944 884.602 283.967 922.36 297.779C960.117 311.591 1032.01 266.211 1018.84 263.293C1006.84 260.632 972.991 236.639 954.778 194.812C946.325 175.399 940.835 156.139 938.176 145.75Z" fill="#C6A75E"/>
<path d="M858.823 90.3258C864.121 91.9817 858.621 98.5085 858.621 98.5085C858.621 98.5085 816.613 97.4664 795.282 70.2523C788.233 61.2592 795.779 43.2479 807.202 43.5313C837.439 44.2814 817.114 77.2874 858.823 90.3258Z" fill="#C6A75E"/>
<mask id="path-4-outside-1_1_39" maskUnits="userSpaceOnUse" x="9" y="148.997" width="817" height="153" fill="black">
<rect fill="white" x="9" y="148.997" width="817" height="153"/>
<path d="M94 289.597H88.6L46.8 188.397C44.4 182.797 42.4667 177.864 41 173.597L39 188.797L22.6 296.997H12.8L36.4 152.797H42L86.6 258.797C88.8667 263.73 90.6667 268.397 92 272.797C92.4 271.33 94.4667 266.73 98.2 258.997L148 152.797H153.4L175.2 296.997H165.2L149.6 188.397C148.533 181.597 148 176.464 148 172.997C147.867 173.13 147.533 173.797 147 174.997C146.6 176.064 145.8 177.93 144.6 180.597C143.533 183.13 142.4 185.797 141.2 188.597L94 289.597ZM269.486 298.997C250.953 298.997 235.419 292.53 222.886 279.597C210.353 266.664 204.086 250.864 204.086 232.197C204.086 213.397 210.353 197.53 222.886 184.597C235.419 171.664 250.953 165.197 269.486 165.197C288.019 165.197 303.553 171.664 316.086 184.597C328.619 197.53 334.886 213.397 334.886 232.197C334.886 250.864 328.619 266.664 316.086 279.597C303.553 292.53 288.019 298.997 269.486 298.997ZM269.486 173.397C253.486 173.397 240.153 179.064 229.486 190.397C218.953 201.73 213.686 215.664 213.686 232.197C213.686 248.597 218.953 262.464 229.486 273.797C240.153 284.997 253.486 290.597 269.486 290.597C285.619 290.597 298.953 284.997 309.486 273.797C320.019 262.464 325.286 248.597 325.286 232.197C325.286 215.664 320.019 201.73 309.486 190.397C298.953 179.064 285.619 173.397 269.486 173.397ZM374.977 296.997V167.797C386.443 166.864 396.177 166.397 404.177 166.397C416.443 166.397 426.577 169.597 434.577 175.997C442.577 182.264 446.577 191.264 446.577 202.997C446.577 210.864 444.31 218.13 439.777 224.797C435.243 231.464 430.11 236.864 424.377 240.997C440.243 262.064 450.043 274.664 453.777 278.797C461.377 286.664 469.643 291.13 478.577 292.197L478.377 298.397C470.91 298.264 464.843 297.197 460.177 295.197C455.51 293.064 450.843 289.53 446.177 284.597C441.643 279.664 431.577 266.397 415.977 244.797C405.177 244.797 394.577 244.464 384.177 243.797V296.997H374.977ZM410.977 237.197C416.177 237.197 421.777 233.73 427.777 226.797C433.777 219.864 436.777 211.797 436.777 202.597C436.777 193.397 433.643 186.397 427.377 181.597C421.11 176.797 412.977 174.397 402.977 174.397C397.643 174.397 391.377 174.664 384.177 175.197V236.197C393.777 236.864 402.71 237.197 410.977 237.197ZM549.173 298.997C530.64 298.997 515.107 292.53 502.573 279.597C490.04 266.664 483.773 250.864 483.773 232.197C483.773 213.397 490.04 197.53 502.573 184.597C515.107 171.664 530.64 165.197 549.173 165.197C567.707 165.197 583.24 171.664 595.773 184.597C608.307 197.53 614.573 213.397 614.573 232.197C614.573 250.864 608.307 266.664 595.773 279.597C583.24 292.53 567.707 298.997 549.173 298.997ZM549.173 173.397C533.173 173.397 519.84 179.064 509.173 190.397C498.64 201.73 493.373 215.664 493.373 232.197C493.373 248.597 498.64 262.464 509.173 273.797C519.84 284.997 533.173 290.597 549.173 290.597C565.307 290.597 578.64 284.997 589.173 273.797C599.707 262.464 604.973 248.597 604.973 232.197C604.973 215.664 599.707 201.73 589.173 190.397C578.64 179.064 565.307 173.397 549.173 173.397ZM654.664 296.997V166.397H659.064L744.264 264.397C747.331 267.864 750.131 271.33 752.664 274.797C755.331 278.13 756.731 279.864 756.864 279.997C756.597 276.797 756.464 270.53 756.464 261.197V167.197H765.664V297.797H761.264L674.464 198.197L663.464 184.797C663.731 187.464 663.864 193.73 663.864 203.597V296.997H654.664ZM813.648 296.997V167.197H822.848V296.997H813.648Z"/>
</mask>
<path d="M94 289.597H88.6L46.8 188.397C44.4 182.797 42.4667 177.864 41 173.597L39 188.797L22.6 296.997H12.8L36.4 152.797H42L86.6 258.797C88.8667 263.73 90.6667 268.397 92 272.797C92.4 271.33 94.4667 266.73 98.2 258.997L148 152.797H153.4L175.2 296.997H165.2L149.6 188.397C148.533 181.597 148 176.464 148 172.997C147.867 173.13 147.533 173.797 147 174.997C146.6 176.064 145.8 177.93 144.6 180.597C143.533 183.13 142.4 185.797 141.2 188.597L94 289.597ZM269.486 298.997C250.953 298.997 235.419 292.53 222.886 279.597C210.353 266.664 204.086 250.864 204.086 232.197C204.086 213.397 210.353 197.53 222.886 184.597C235.419 171.664 250.953 165.197 269.486 165.197C288.019 165.197 303.553 171.664 316.086 184.597C328.619 197.53 334.886 213.397 334.886 232.197C334.886 250.864 328.619 266.664 316.086 279.597C303.553 292.53 288.019 298.997 269.486 298.997ZM269.486 173.397C253.486 173.397 240.153 179.064 229.486 190.397C218.953 201.73 213.686 215.664 213.686 232.197C213.686 248.597 218.953 262.464 229.486 273.797C240.153 284.997 253.486 290.597 269.486 290.597C285.619 290.597 298.953 284.997 309.486 273.797C320.019 262.464 325.286 248.597 325.286 232.197C325.286 215.664 320.019 201.73 309.486 190.397C298.953 179.064 285.619 173.397 269.486 173.397ZM374.977 296.997V167.797C386.443 166.864 396.177 166.397 404.177 166.397C416.443 166.397 426.577 169.597 434.577 175.997C442.577 182.264 446.577 191.264 446.577 202.997C446.577 210.864 444.31 218.13 439.777 224.797C435.243 231.464 430.11 236.864 424.377 240.997C440.243 262.064 450.043 274.664 453.777 278.797C461.377 286.664 469.643 291.13 478.577 292.197L478.377 298.397C470.91 298.264 464.843 297.197 460.177 295.197C455.51 293.064 450.843 289.53 446.177 284.597C441.643 279.664 431.577 266.397 415.977 244.797C405.177 244.797 394.577 244.464 384.177 243.797V296.997H374.977ZM410.977 237.197C416.177 237.197 421.777 233.73 427.777 226.797C433.777 219.864 436.777 211.797 436.777 202.597C436.777 193.397 433.643 186.397 427.377 181.597C421.11 176.797 412.977 174.397 402.977 174.397C397.643 174.397 391.377 174.664 384.177 175.197V236.197C393.777 236.864 402.71 237.197 410.977 237.197ZM549.173 298.997C530.64 298.997 515.107 292.53 502.573 279.597C490.04 266.664 483.773 250.864 483.773 232.197C483.773 213.397 490.04 197.53 502.573 184.597C515.107 171.664 530.64 165.197 549.173 165.197C567.707 165.197 583.24 171.664 595.773 184.597C608.307 197.53 614.573 213.397 614.573 232.197C614.573 250.864 608.307 266.664 595.773 279.597C583.24 292.53 567.707 298.997 549.173 298.997ZM549.173 173.397C533.173 173.397 519.84 179.064 509.173 190.397C498.64 201.73 493.373 215.664 493.373 232.197C493.373 248.597 498.64 262.464 509.173 273.797C519.84 284.997 533.173 290.597 549.173 290.597C565.307 290.597 578.64 284.997 589.173 273.797C599.707 262.464 604.973 248.597 604.973 232.197C604.973 215.664 599.707 201.73 589.173 190.397C578.64 179.064 565.307 173.397 549.173 173.397ZM654.664 296.997V166.397H659.064L744.264 264.397C747.331 267.864 750.131 271.33 752.664 274.797C755.331 278.13 756.731 279.864 756.864 279.997C756.597 276.797 756.464 270.53 756.464 261.197V167.197H765.664V297.797H761.264L674.464 198.197L663.464 184.797C663.731 187.464 663.864 193.73 663.864 203.597V296.997H654.664ZM813.648 296.997V167.197H822.848V296.997H813.648Z" fill="#FFFFFF"/>
<path d="M94 289.597V292.597H95.9095L96.7179 290.867L94 289.597ZM88.6 289.597L85.8272 290.742L86.5933 292.597H88.6V289.597ZM46.8 188.397L49.5728 187.252L49.5652 187.234L49.5574 187.215L46.8 188.397ZM41 173.597L43.8371 172.622L38.0256 173.206L41 173.597ZM39 188.797L41.9661 189.247L41.9705 189.218L41.9744 189.188L39 188.797ZM22.6 296.997V299.997H25.1796L25.5661 297.447L22.6 296.997ZM12.8 296.997L9.83939 296.513L9.2691 299.997H12.8V296.997ZM36.4 152.797V149.797H33.8511L33.4394 152.313L36.4 152.797ZM42 152.797L44.7652 151.634L43.9925 149.797H42V152.797ZM86.6 258.797L83.8348 259.961L83.8537 260.005L83.874 260.05L86.6 258.797ZM92 272.797L89.1289 273.667L92.1517 283.642L94.8943 273.586L92 272.797ZM98.2 258.997L100.902 260.301L100.909 260.286L100.916 260.271L98.2 258.997ZM148 152.797V149.797H146.093L145.284 151.523L148 152.797ZM153.4 152.797L156.366 152.349L155.981 149.797H153.4V152.797ZM175.2 296.997V299.997H178.688L178.166 296.549L175.2 296.997ZM165.2 296.997L162.23 297.424L162.6 299.997H165.2V296.997ZM149.6 188.397L152.57 187.971L152.567 187.951L152.564 187.932L149.6 188.397ZM148 172.997H151V165.754L145.879 170.876L148 172.997ZM147 174.997L144.259 173.779L144.222 173.86L144.191 173.944L147 174.997ZM144.6 180.597L141.864 179.366L141.849 179.399L141.835 179.433L144.6 180.597ZM141.2 188.597L143.918 189.867L143.938 189.823L143.957 189.779L141.2 188.597ZM94 289.597V286.597H88.6V289.597V292.597H94V289.597ZM88.6 289.597L91.3728 288.452L49.5728 187.252L46.8 188.397L44.0272 189.542L85.8272 290.742L88.6 289.597ZM46.8 188.397L49.5574 187.215C47.1772 181.661 45.2731 176.799 43.8371 172.622L41 173.597L38.1629 174.572C39.6602 178.928 41.6228 183.933 44.0426 189.579L46.8 188.397ZM41 173.597L38.0256 173.206L36.0256 188.406L39 188.797L41.9744 189.188L43.9744 173.988L41 173.597ZM39 188.797L36.0339 188.348L19.6339 296.548L22.6 296.997L25.5661 297.447L41.9661 189.247L39 188.797ZM22.6 296.997V293.997H12.8V296.997V299.997H22.6V296.997ZM12.8 296.997L15.7606 297.482L39.3606 153.282L36.4 152.797L33.4394 152.313L9.83939 296.513L12.8 296.997ZM36.4 152.797V155.797H42V152.797V149.797H36.4V152.797ZM42 152.797L39.2348 153.961L83.8348 259.961L86.6 258.797L89.3652 257.634L44.7652 151.634L42 152.797ZM86.6 258.797L83.874 260.05C86.0935 264.88 87.8415 269.419 89.1289 273.667L92 272.797L94.8711 271.927C93.4918 267.376 91.6398 262.581 89.326 257.545L86.6 258.797ZM92 272.797L94.8943 273.586C95.0209 273.122 95.5297 271.829 96.5865 269.477C97.6035 267.213 99.0399 264.158 100.902 260.301L98.2 258.997L95.4984 257.693C93.6268 261.57 92.1632 264.681 91.1135 267.018C90.1036 269.266 89.3792 271.005 89.1057 272.008L92 272.797ZM98.2 258.997L100.916 260.271L150.716 154.071L148 152.797L145.284 151.523L95.4838 257.723L98.2 258.997ZM148 152.797V155.797H153.4V152.797V149.797H148V152.797ZM153.4 152.797L150.434 153.246L172.234 297.446L175.2 296.997L178.166 296.549L156.366 152.349L153.4 152.797ZM175.2 296.997V293.997H165.2V296.997V299.997H175.2V296.997ZM165.2 296.997L168.17 296.571L152.57 187.971L149.6 188.397L146.63 188.824L162.23 297.424L165.2 296.997ZM149.6 188.397L152.564 187.932C151.503 181.167 151 176.222 151 172.997H148H145C145 176.706 145.564 182.027 146.636 188.862L149.6 188.397ZM148 172.997L145.879 170.876C145.541 171.214 145.325 171.592 145.271 171.686C145.167 171.864 145.064 172.061 144.967 172.255C144.77 172.649 144.532 173.163 144.259 173.779L147 174.997L149.741 176.216C150.001 175.631 150.197 175.212 150.333 174.939C150.403 174.8 150.441 174.73 150.454 174.709C150.46 174.698 150.445 174.724 150.413 174.772C150.394 174.799 150.294 174.946 150.121 175.118L148 172.997ZM147 174.997L144.191 173.944C143.829 174.909 143.066 176.695 141.864 179.366L144.6 180.597L147.336 181.828C148.534 179.166 149.371 177.218 149.809 176.05L147 174.997ZM144.6 180.597L141.835 179.433C140.771 181.96 139.64 184.621 138.443 187.415L141.2 188.597L143.957 189.779C145.16 186.974 146.296 184.301 147.365 181.761L144.6 180.597ZM141.2 188.597L138.482 187.327L91.2821 288.327L94 289.597L96.7179 290.867L143.918 189.867L141.2 188.597ZM222.886 279.597L225.04 277.509L222.886 279.597ZM222.886 184.597L225.04 186.685V186.685L222.886 184.597ZM316.086 184.597L318.24 182.509V182.509L316.086 184.597ZM316.086 279.597L318.24 281.685V281.685L316.086 279.597ZM229.486 190.397L227.301 188.341L227.295 188.348L227.288 188.355L229.486 190.397ZM229.486 273.797L227.288 275.839L227.301 275.853L227.314 275.866L229.486 273.797ZM309.486 273.797L311.671 275.852L311.677 275.846L311.683 275.839L309.486 273.797ZM309.486 190.397L311.683 188.355V188.355L309.486 190.397ZM269.486 298.997V295.997C251.738 295.997 236.99 289.841 225.04 277.509L222.886 279.597L220.732 281.685C233.848 295.22 250.167 301.997 269.486 301.997V298.997ZM222.886 279.597L225.04 277.509C213.071 265.158 207.086 250.116 207.086 232.197H204.086H201.086C201.086 251.612 207.634 268.17 220.732 281.685L222.886 279.597ZM204.086 232.197H207.086C207.086 214.139 213.075 199.032 225.04 186.685L222.886 184.597L220.732 182.509C207.63 196.029 201.086 212.656 201.086 232.197H204.086ZM222.886 184.597L225.04 186.685C236.99 174.353 251.738 168.197 269.486 168.197V165.197V162.197C250.167 162.197 233.848 168.974 220.732 182.509L222.886 184.597ZM269.486 165.197V168.197C287.234 168.197 301.982 174.353 313.932 186.685L316.086 184.597L318.24 182.509C305.124 168.974 288.805 162.197 269.486 162.197V165.197ZM316.086 184.597L313.932 186.685C325.897 199.032 331.886 214.139 331.886 232.197H334.886H337.886C337.886 212.656 331.342 196.029 318.24 182.509L316.086 184.597ZM334.886 232.197H331.886C331.886 250.116 325.901 265.158 313.932 277.509L316.086 279.597L318.24 281.685C331.338 268.17 337.886 251.612 337.886 232.197H334.886ZM316.086 279.597L313.932 277.509C301.982 289.841 287.234 295.997 269.486 295.997V298.997V301.997C288.805 301.997 305.124 295.22 318.24 281.685L316.086 279.597ZM269.486 173.397V170.397C252.685 170.397 238.553 176.387 227.301 188.341L229.486 190.397L231.671 192.453C241.753 181.741 254.287 176.397 269.486 176.397V173.397ZM229.486 190.397L227.288 188.355C216.202 200.283 210.686 214.963 210.686 232.197H213.686H216.686C216.686 216.365 221.703 203.177 231.683 192.439L229.486 190.397ZM213.686 232.197H210.686C210.686 249.305 216.206 263.916 227.288 275.839L229.486 273.797L231.683 271.755C221.699 261.012 216.686 247.889 216.686 232.197H213.686ZM229.486 273.797L227.314 275.866C238.568 287.683 252.697 293.597 269.486 293.597V290.597V287.597C254.275 287.597 241.737 282.311 231.658 271.728L229.486 273.797ZM269.486 290.597V293.597C286.401 293.597 300.54 287.688 311.671 275.852L309.486 273.797L307.301 271.742C297.365 282.306 284.838 287.597 269.486 287.597V290.597ZM309.486 273.797L311.683 275.839C322.766 263.916 328.286 249.305 328.286 232.197H325.286H322.286C322.286 247.889 317.273 261.012 307.288 271.755L309.486 273.797ZM325.286 232.197H328.286C328.286 214.963 322.77 200.283 311.683 188.355L309.486 190.397L307.288 192.439C317.269 203.177 322.286 216.365 322.286 232.197H325.286ZM309.486 190.397L311.683 188.355C300.556 176.382 286.413 170.397 269.486 170.397V173.397V176.397C284.826 176.397 297.35 181.746 307.288 192.439L309.486 190.397ZM374.977 296.997H371.977V299.997H374.977V296.997ZM374.977 167.797L374.733 164.807L371.977 165.031V167.797H374.977ZM434.577 175.997L432.702 178.34L432.714 178.349L432.727 178.359L434.577 175.997ZM439.777 224.797L442.257 226.484V226.484L439.777 224.797ZM424.377 240.997L422.622 238.564L420.137 240.355L421.98 242.802L424.377 240.997ZM453.777 278.797L451.55 280.808L451.584 280.845L451.619 280.882L453.777 278.797ZM478.577 292.197L481.575 292.294L481.664 289.544L478.932 289.218L478.577 292.197ZM478.377 298.397L478.323 301.397L481.28 301.449L481.375 298.494L478.377 298.397ZM460.177 295.197L458.929 297.926L458.962 297.94L458.995 297.955L460.177 295.197ZM446.177 284.597L443.968 286.627L443.982 286.643L443.997 286.659L446.177 284.597ZM415.977 244.797L418.409 243.041L417.51 241.797H415.977V244.797ZM384.177 243.797L384.368 240.803L381.177 240.599V243.797H384.177ZM384.177 296.997V299.997H387.177V296.997H384.177ZM427.777 226.797L425.508 224.834V224.834L427.777 226.797ZM427.377 181.597L429.201 179.215V179.215L427.377 181.597ZM384.177 175.197L383.955 172.205L381.177 172.411V175.197H384.177ZM384.177 236.197H381.177V238.996L383.969 239.19L384.177 236.197ZM374.977 296.997H377.977V167.797H374.977H371.977V296.997H374.977ZM374.977 167.797L375.22 170.787C386.637 169.858 396.284 169.397 404.177 169.397V166.397V163.397C396.069 163.397 386.249 163.87 374.733 164.807L374.977 167.797ZM404.177 166.397V169.397C415.901 169.397 425.334 172.445 432.702 178.34L434.577 175.997L436.451 173.655C427.819 166.749 416.985 163.397 404.177 163.397V166.397ZM434.577 175.997L432.727 178.359C439.883 183.964 443.577 192.025 443.577 202.997H446.577H449.577C449.577 190.503 445.27 180.563 436.427 173.635L434.577 175.997ZM446.577 202.997H443.577C443.577 210.246 441.5 216.928 437.296 223.11L439.777 224.797L442.257 226.484C447.12 219.333 449.577 211.481 449.577 202.997H446.577ZM439.777 224.797L437.296 223.11C432.932 229.528 428.035 234.661 422.622 238.564L424.377 240.997L426.131 243.431C432.185 239.066 437.555 233.4 442.257 226.484L439.777 224.797ZM424.377 240.997L421.98 242.802C437.808 263.817 447.705 276.55 451.55 280.808L453.777 278.797L456.003 276.786C452.382 272.777 442.679 260.311 426.773 239.192L424.377 240.997ZM453.777 278.797L451.619 280.882C459.592 289.134 468.463 294.011 478.221 295.176L478.577 292.197L478.932 289.218C470.823 288.25 463.161 284.194 455.934 276.713L453.777 278.797ZM478.577 292.197L475.578 292.1L475.378 298.3L478.377 298.397L481.375 298.494L481.575 292.294L478.577 292.197ZM478.377 298.397L478.43 295.398C471.185 295.268 465.542 294.233 461.358 292.44L460.177 295.197L458.995 297.955C464.145 300.162 470.635 301.259 478.323 301.397L478.377 298.397ZM460.177 295.197L461.424 292.469C457.201 290.538 452.839 287.275 448.356 282.536L446.177 284.597L443.997 286.659C448.848 291.786 453.819 295.589 458.929 297.926L460.177 295.197ZM446.177 284.597L448.386 282.567C443.999 277.793 434.047 264.694 418.409 243.041L415.977 244.797L413.545 246.554C429.106 268.1 439.288 281.534 443.968 286.627L446.177 284.597ZM415.977 244.797V241.797C405.238 241.797 394.702 241.466 384.368 240.803L384.177 243.797L383.985 246.791C394.451 247.462 405.115 247.797 415.977 247.797V244.797ZM384.177 243.797H381.177V296.997H384.177H387.177V243.797H384.177ZM384.177 296.997V293.997H374.977V296.997V299.997H384.177V296.997ZM410.977 237.197V240.197C417.522 240.197 423.885 235.878 430.045 228.76L427.777 226.797L425.508 224.834C419.668 231.583 414.831 234.197 410.977 234.197V237.197ZM427.777 226.797L430.045 228.76C436.519 221.28 439.777 212.515 439.777 202.597H436.777H433.777C433.777 211.079 431.034 218.448 425.508 224.834L427.777 226.797ZM436.777 202.597H439.777C439.777 192.638 436.337 184.682 429.201 179.215L427.377 181.597L425.552 183.979C430.949 188.113 433.777 194.156 433.777 202.597H436.777ZM427.377 181.597L429.201 179.215C422.285 173.918 413.458 171.397 402.977 171.397V174.397V177.397C412.495 177.397 419.935 179.676 425.552 183.979L427.377 181.597ZM402.977 174.397V171.397C397.549 171.397 391.205 171.668 383.955 172.205L384.177 175.197L384.398 178.189C391.548 177.659 397.738 177.397 402.977 177.397V174.397ZM384.177 175.197H381.177V236.197H384.177H387.177V175.197H384.177ZM384.177 236.197L383.969 239.19C393.627 239.861 402.63 240.197 410.977 240.197V237.197V234.197C402.789 234.197 393.926 233.867 384.384 233.204L384.177 236.197ZM502.573 279.597L504.728 277.509L502.573 279.597ZM502.573 184.597L504.728 186.685V186.685L502.573 184.597ZM595.773 184.597L597.928 182.509V182.509L595.773 184.597ZM595.773 279.597L597.928 281.685V281.685L595.773 279.597ZM509.173 190.397L506.989 188.341L506.982 188.348L506.976 188.355L509.173 190.397ZM509.173 273.797L506.976 275.839L506.988 275.853L507.001 275.866L509.173 273.797ZM589.173 273.797L591.359 275.852L591.365 275.846L591.371 275.839L589.173 273.797ZM589.173 190.397L591.371 188.355V188.355L589.173 190.397ZM549.173 298.997V295.997C531.426 295.997 516.678 289.841 504.728 277.509L502.573 279.597L500.419 281.685C513.536 295.22 529.855 301.997 549.173 301.997V298.997ZM502.573 279.597L504.728 277.509C492.758 265.158 486.773 250.116 486.773 232.197H483.773H480.773C480.773 251.612 487.322 268.17 500.419 281.685L502.573 279.597ZM483.773 232.197H486.773C486.773 214.139 492.763 199.032 504.728 186.685L502.573 184.597L500.419 182.509C487.318 196.029 480.773 212.656 480.773 232.197H483.773ZM502.573 184.597L504.728 186.685C516.678 174.353 531.426 168.197 549.173 168.197V165.197V162.197C529.855 162.197 513.536 168.974 500.419 182.509L502.573 184.597ZM549.173 165.197V168.197C566.921 168.197 581.669 174.353 593.619 186.685L595.773 184.597L597.928 182.509C584.811 168.974 568.492 162.197 549.173 162.197V165.197ZM595.773 184.597L593.619 186.685C605.584 199.032 611.573 214.139 611.573 232.197H614.573H617.573C617.573 212.656 611.029 196.029 597.928 182.509L595.773 184.597ZM614.573 232.197H611.573C611.573 250.116 605.589 265.158 593.619 277.509L595.773 279.597L597.928 281.685C611.025 268.17 617.573 251.612 617.573 232.197H614.573ZM595.773 279.597L593.619 277.509C581.669 289.841 566.921 295.997 549.173 295.997V298.997V301.997C568.492 301.997 584.811 295.22 597.928 281.685L595.773 279.597ZM549.173 173.397V170.397C532.372 170.397 518.24 176.387 506.989 188.341L509.173 190.397L511.358 192.453C521.44 181.741 533.974 176.397 549.173 176.397V173.397ZM509.173 190.397L506.976 188.355C495.889 200.283 490.373 214.963 490.373 232.197H493.373H496.373C496.373 216.365 501.391 203.177 511.371 192.439L509.173 190.397ZM493.373 232.197H490.373C490.373 249.305 495.894 263.916 506.976 275.839L509.173 273.797L511.371 271.755C501.386 261.012 496.373 247.889 496.373 232.197H493.373ZM509.173 273.797L507.001 275.866C518.256 287.683 532.384 293.597 549.173 293.597V290.597V287.597C533.963 287.597 521.425 282.311 511.346 271.728L509.173 273.797ZM549.173 290.597V293.597C566.089 293.597 580.228 287.688 591.359 275.852L589.173 273.797L586.988 271.742C577.052 282.306 564.525 287.597 549.173 287.597V290.597ZM589.173 273.797L591.371 275.839C602.453 263.916 607.973 249.305 607.973 232.197H604.973H601.973C601.973 247.889 596.961 261.012 586.976 271.755L589.173 273.797ZM604.973 232.197H607.973C607.973 214.963 602.458 200.283 591.371 188.355L589.173 190.397L586.976 192.439C596.956 203.177 601.973 216.365 601.973 232.197H604.973ZM589.173 190.397L591.371 188.355C580.243 176.382 566.1 170.397 549.173 170.397V173.397V176.397C564.513 176.397 577.037 181.746 586.976 192.439L589.173 190.397ZM654.664 296.997H651.664V299.997H654.664V296.997ZM654.664 166.397V163.397H651.664V166.397H654.664ZM659.064 166.397L661.328 164.429L660.431 163.397H659.064V166.397ZM744.264 264.397L742 266.365L742.009 266.375L742.017 266.385L744.264 264.397ZM752.664 274.797L750.242 276.567L750.281 276.62L750.321 276.671L752.664 274.797ZM756.864 279.997L754.743 282.118L760.534 287.91L759.854 279.748L756.864 279.997ZM756.464 167.197V164.197H753.464V167.197H756.464ZM765.664 167.197H768.664V164.197H765.664V167.197ZM765.664 297.797V300.797H768.664V297.797H765.664ZM761.264 297.797L759.002 299.768L759.899 300.797H761.264V297.797ZM674.464 198.197L672.145 200.101L672.173 200.135L672.202 200.168L674.464 198.197ZM663.464 184.797L665.783 182.894L659.492 175.231L660.479 185.096L663.464 184.797ZM663.864 296.997V299.997H666.864V296.997H663.864ZM654.664 296.997H657.664V166.397H654.664H651.664V296.997H654.664ZM654.664 166.397V169.397H659.064V166.397V163.397H654.664V166.397ZM659.064 166.397L656.8 168.365L742 266.365L744.264 264.397L746.528 262.429L661.328 164.429L659.064 166.397ZM744.264 264.397L742.017 266.385C745.027 269.787 747.768 273.181 750.242 276.567L752.664 274.797L755.086 273.027C752.494 269.48 749.635 265.941 746.511 262.409L744.264 264.397ZM752.664 274.797L750.321 276.671C751.656 278.339 752.676 279.61 753.38 280.482C753.732 280.918 754.009 281.258 754.208 281.501C754.338 281.66 754.576 281.952 754.743 282.118L756.864 279.997L758.985 277.876C759.085 277.976 759.098 278.001 758.845 277.693C758.661 277.469 758.396 277.143 758.048 276.712C757.352 275.851 756.339 274.589 755.007 272.923L752.664 274.797ZM756.864 279.997L759.854 279.748C759.599 276.692 759.464 270.548 759.464 261.197H756.464H753.464C753.464 270.513 753.596 276.902 753.874 280.246L756.864 279.997ZM756.464 261.197H759.464V167.197H756.464H753.464V261.197H756.464ZM756.464 167.197V170.197H765.664V167.197V164.197H756.464V167.197ZM765.664 167.197H762.664V297.797H765.664H768.664V167.197H765.664ZM765.664 297.797V294.797H761.264V297.797V300.797H765.664V297.797ZM761.264 297.797L763.526 295.826L676.726 196.226L674.464 198.197L672.202 200.168L759.002 299.768L761.264 297.797ZM674.464 198.197L676.783 196.294L665.783 182.894L663.464 184.797L661.145 186.701L672.145 200.101L674.464 198.197ZM663.464 184.797L660.479 185.096C660.728 187.582 660.864 193.683 660.864 203.597H663.864H666.864C666.864 193.778 666.734 187.346 666.449 184.499L663.464 184.797ZM663.864 203.597H660.864V296.997H663.864H666.864V203.597H663.864ZM663.864 296.997V293.997H654.664V296.997V299.997H663.864V296.997ZM813.648 296.997H810.648V299.997H813.648V296.997ZM813.648 167.197V164.197H810.648V167.197H813.648ZM822.848 167.197H825.848V164.197H822.848V167.197ZM822.848 296.997V299.997H825.848V296.997H822.848ZM813.648 296.997H816.648V167.197H813.648H810.648V296.997H813.648ZM813.648 167.197V170.197H822.848V167.197V164.197H813.648V167.197ZM822.848 167.197H819.848V296.997H822.848H825.848V167.197H822.848ZM822.848 296.997V293.997H813.648V296.997V299.997H822.848V296.997Z" fill="#FFFFFF" mask="url(#path-4-outside-1_1_39)"/>
<mask id="path-6-outside-2_1_39" maskUnits="userSpaceOnUse" x="0" y="48.9971" width="379" height="78" fill="black">
<rect fill="white" y="48.9971" width="379" height="78"/>
<path d="M26.4 56.6971H2.2V52.4971H55.4V56.6971H31.2V123.997H26.4V56.6971ZM70.8172 123.997V52.4971H75.6172V123.997H70.8172ZM101.97 123.997V52.4971H135.17V56.6971H106.77V82.9971H132.47V87.0971H106.77V119.797H136.27V123.997H101.97ZM160.085 63.8971L160.285 72.3971V123.997H155.485V51.8971H157.685L204.785 106.197C207.985 109.997 210.452 113.03 212.185 115.297C211.918 112.097 211.785 108.43 211.785 104.297V52.4971H216.585V124.597H214.385L166.385 69.2971C163.052 65.4971 160.918 62.9638 159.985 61.6971L160.085 63.8971ZM265.885 120.497C275.285 120.497 282.818 117.964 288.485 112.897C294.218 107.764 297.085 100.064 297.085 89.7971C297.085 79.5305 293.852 71.3638 287.385 65.2971C280.985 59.2305 273.052 56.1971 263.585 56.1971C257.518 56.1971 252.252 56.3638 247.785 56.6971V119.697C252.118 120.23 258.152 120.497 265.885 120.497ZM263.585 51.7971C274.585 51.7971 283.785 55.2305 291.185 62.0971C298.585 68.8971 302.285 78.1638 302.285 89.8971C302.285 95.8305 301.318 101.097 299.385 105.697C297.518 110.23 294.918 113.864 291.585 116.597C284.718 122.13 276.152 124.897 265.885 124.897C259.152 124.897 251.518 124.53 242.985 123.797V52.4971C249.785 52.0305 256.652 51.7971 263.585 51.7971ZM327.352 99.1971L317.052 123.997H311.952L342.052 51.9971H344.852L375.052 123.997H369.652L359.352 99.1971H327.352ZM343.152 59.9971C343.085 60.0638 342.952 60.4638 342.752 61.1971C341.818 64.0638 340.918 66.4971 340.052 68.4971L329.052 95.0971H357.652L346.652 68.5971C344.318 63.5305 343.152 60.6638 343.152 59.9971Z"/>
</mask>
<path d="M26.4 56.6971H2.2V52.4971H55.4V56.6971H31.2V123.997H26.4V56.6971ZM70.8172 123.997V52.4971H75.6172V123.997H70.8172ZM101.97 123.997V52.4971H135.17V56.6971H106.77V82.9971H132.47V87.0971H106.77V119.797H136.27V123.997H101.97ZM160.085 63.8971L160.285 72.3971V123.997H155.485V51.8971H157.685L204.785 106.197C207.985 109.997 210.452 113.03 212.185 115.297C211.918 112.097 211.785 108.43 211.785 104.297V52.4971H216.585V124.597H214.385L166.385 69.2971C163.052 65.4971 160.918 62.9638 159.985 61.6971L160.085 63.8971ZM265.885 120.497C275.285 120.497 282.818 117.964 288.485 112.897C294.218 107.764 297.085 100.064 297.085 89.7971C297.085 79.5305 293.852 71.3638 287.385 65.2971C280.985 59.2305 273.052 56.1971 263.585 56.1971C257.518 56.1971 252.252 56.3638 247.785 56.6971V119.697C252.118 120.23 258.152 120.497 265.885 120.497ZM263.585 51.7971C274.585 51.7971 283.785 55.2305 291.185 62.0971C298.585 68.8971 302.285 78.1638 302.285 89.8971C302.285 95.8305 301.318 101.097 299.385 105.697C297.518 110.23 294.918 113.864 291.585 116.597C284.718 122.13 276.152 124.897 265.885 124.897C259.152 124.897 251.518 124.53 242.985 123.797V52.4971C249.785 52.0305 256.652 51.7971 263.585 51.7971ZM327.352 99.1971L317.052 123.997H311.952L342.052 51.9971H344.852L375.052 123.997H369.652L359.352 99.1971H327.352ZM343.152 59.9971C343.085 60.0638 342.952 60.4638 342.752 61.1971C341.818 64.0638 340.918 66.4971 340.052 68.4971L329.052 95.0971H357.652L346.652 68.5971C344.318 63.5305 343.152 60.6638 343.152 59.9971Z" fill="#FFFFFF"/>
<path d="M26.4 56.6971H28.4V54.6971H26.4V56.6971ZM2.2 56.6971H0.2V58.6971H2.2V56.6971ZM2.2 52.4971V50.4971H0.2V52.4971H2.2ZM55.4 52.4971H57.4V50.4971H55.4V52.4971ZM55.4 56.6971V58.6971H57.4V56.6971H55.4ZM31.2 56.6971V54.6971H29.2V56.6971H31.2ZM31.2 123.997V125.997H33.2V123.997H31.2ZM26.4 123.997H24.4V125.997H26.4V123.997ZM26.4 56.6971V54.6971H2.2V56.6971V58.6971H26.4V56.6971ZM2.2 56.6971H4.2V52.4971H2.2H0.2V56.6971H2.2ZM2.2 52.4971V54.4971H55.4V52.4971V50.4971H2.2V52.4971ZM55.4 52.4971H53.4V56.6971H55.4H57.4V52.4971H55.4ZM55.4 56.6971V54.6971H31.2V56.6971V58.6971H55.4V56.6971ZM31.2 56.6971H29.2V123.997H31.2H33.2V56.6971H31.2ZM31.2 123.997V121.997H26.4V123.997V125.997H31.2V123.997ZM26.4 123.997H28.4V56.6971H26.4H24.4V123.997H26.4ZM70.8172 123.997H68.8172V125.997H70.8172V123.997ZM70.8172 52.4971V50.4971H68.8172V52.4971H70.8172ZM75.6172 52.4971H77.6172V50.4971H75.6172V52.4971ZM75.6172 123.997V125.997H77.6172V123.997H75.6172ZM70.8172 123.997H72.8172V52.4971H70.8172H68.8172V123.997H70.8172ZM70.8172 52.4971V54.4971H75.6172V52.4971V50.4971H70.8172V52.4971ZM75.6172 52.4971H73.6172V123.997H75.6172H77.6172V52.4971H75.6172ZM75.6172 123.997V121.997H70.8172V123.997V125.997H75.6172V123.997ZM101.97 123.997H99.9695V125.997H101.97V123.997ZM101.97 52.4971V50.4971H99.9695V52.4971H101.97ZM135.17 52.4971H137.17V50.4971H135.17V52.4971ZM135.17 56.6971V58.6971H137.17V56.6971H135.17ZM106.77 56.6971V54.6971H104.77V56.6971H106.77ZM106.77 82.9971H104.77V84.9971H106.77V82.9971ZM132.47 82.9971H134.47V80.9971H132.47V82.9971ZM132.47 87.0971V89.0971H134.47V87.0971H132.47ZM106.77 87.0971V85.0971H104.77V87.0971H106.77ZM106.77 119.797H104.77V121.797H106.77V119.797ZM136.27 119.797H138.27V117.797H136.27V119.797ZM136.27 123.997V125.997H138.27V123.997H136.27ZM101.97 123.997H103.97V52.4971H101.97H99.9695V123.997H101.97ZM101.97 52.4971V54.4971H135.17V52.4971V50.4971H101.97V52.4971ZM135.17 52.4971H133.17V56.6971H135.17H137.17V52.4971H135.17ZM135.17 56.6971V54.6971H106.77V56.6971V58.6971H135.17V56.6971ZM106.77 56.6971H104.77V82.9971H106.77H108.77V56.6971H106.77ZM106.77 82.9971V84.9971H132.47V82.9971V80.9971H106.77V82.9971ZM132.47 82.9971H130.47V87.0971H132.47H134.47V82.9971H132.47ZM132.47 87.0971V85.0971H106.77V87.0971V89.0971H132.47V87.0971ZM106.77 87.0971H104.77V119.797H106.77H108.77V87.0971H106.77ZM106.77 119.797V121.797H136.27V119.797V117.797H106.77V119.797ZM136.27 119.797H134.27V123.997H136.27H138.27V119.797H136.27ZM136.27 123.997V121.997H101.97V123.997V125.997H136.27V123.997ZM160.085 63.8971L162.085 63.8501L162.084 63.8282L162.083 63.8063L160.085 63.8971ZM160.285 72.3971H162.285V72.3736L162.285 72.3501L160.285 72.3971ZM160.285 123.997V125.997H162.285V123.997H160.285ZM155.485 123.997H153.485V125.997H155.485V123.997ZM155.485 51.8971V49.8971H153.485V51.8971H155.485ZM157.685 51.8971L159.196 50.5866L158.598 49.8971H157.685V51.8971ZM204.785 106.197L206.315 104.909L206.306 104.898L206.296 104.887L204.785 106.197ZM212.185 115.297L210.596 116.512L214.745 121.938L214.178 115.131L212.185 115.297ZM211.785 52.4971V50.4971H209.785V52.4971H211.785ZM216.585 52.4971H218.585V50.4971H216.585V52.4971ZM216.585 124.597V126.597H218.585V124.597H216.585ZM214.385 124.597L212.875 125.908L213.473 126.597H214.385V124.597ZM166.385 69.2971L167.896 67.9861L167.889 67.9782L166.385 69.2971ZM159.985 61.6971L161.595 60.5107L157.688 55.2082L157.987 61.7879L159.985 61.6971ZM160.085 63.8971L158.086 63.9442L158.286 72.4442L160.285 72.3971L162.285 72.3501L162.085 63.8501L160.085 63.8971ZM160.285 72.3971H158.285V123.997H160.285H162.285V72.3971H160.285ZM160.285 123.997V121.997H155.485V123.997V125.997H160.285V123.997ZM155.485 123.997H157.485V51.8971H155.485H153.485V123.997H155.485ZM155.485 51.8971V53.8971H157.685V51.8971V49.8971H155.485V51.8971ZM157.685 51.8971L156.174 53.2076L203.274 107.508L204.785 106.197L206.296 104.887L159.196 50.5866L157.685 51.8971ZM204.785 106.197L203.255 107.485C206.448 111.276 208.891 114.282 210.596 116.512L212.185 115.297L213.774 114.082C212.013 111.779 209.523 108.718 206.315 104.909L204.785 106.197ZM212.185 115.297L214.178 115.131C213.917 111.999 213.785 108.39 213.785 104.297H211.785H209.785C209.785 108.471 209.92 112.195 210.192 115.463L212.185 115.297ZM211.785 104.297H213.785V52.4971H211.785H209.785V104.297H211.785ZM211.785 52.4971V54.4971H216.585V52.4971V50.4971H211.785V52.4971ZM216.585 52.4971H214.585V124.597H216.585H218.585V52.4971H216.585ZM216.585 124.597V122.597H214.385V124.597V126.597H216.585V124.597ZM214.385 124.597L215.896 123.286L167.896 67.9861L166.385 69.2971L164.875 70.6081L212.875 125.908L214.385 124.597ZM166.385 69.2971L167.889 67.9782C164.543 64.1643 162.469 61.6963 161.595 60.5107L159.985 61.6971L158.375 62.8835C159.368 64.2312 161.561 66.83 164.882 70.616L166.385 69.2971ZM159.985 61.6971L157.987 61.7879L158.087 63.9879L160.085 63.8971L162.083 63.8063L161.983 61.6063L159.985 61.6971ZM288.485 112.897L289.818 114.388L289.819 114.387L288.485 112.897ZM287.385 65.2971L286.009 66.7487L286.017 66.7557L287.385 65.2971ZM247.785 56.6971L247.636 54.7027L245.785 54.8408V56.6971H247.785ZM247.785 119.697H245.785V121.466L247.541 121.682L247.785 119.697ZM291.185 62.0971L289.825 63.5632L289.832 63.5698L291.185 62.0971ZM299.385 105.697L297.541 104.922L297.539 104.929L297.536 104.936L299.385 105.697ZM291.585 116.597L292.84 118.154L292.847 118.149L292.853 118.144L291.585 116.597ZM242.985 123.797H240.985V125.633L242.814 125.79L242.985 123.797ZM242.985 52.4971L242.848 50.5018L240.985 50.6297V52.4971H242.985ZM265.885 120.497V122.497C275.656 122.497 283.704 119.855 289.818 114.388L288.485 112.897L287.152 111.406C281.933 116.072 274.915 118.497 265.885 118.497V120.497ZM288.485 112.897L289.819 114.387C296.105 108.759 299.085 100.433 299.085 89.7971H297.085H295.085C295.085 99.6948 292.332 106.769 287.151 111.407L288.485 112.897ZM297.085 89.7971H299.085C299.085 79.0733 295.688 70.3439 288.754 63.8385L287.385 65.2971L286.017 66.7557C292.016 72.3837 295.085 79.9877 295.085 89.7971H297.085ZM287.385 65.2971L288.761 63.8456C281.961 57.3994 273.522 54.1971 263.585 54.1971V56.1971V58.1971C272.581 58.1971 280.01 61.0616 286.009 66.7486L287.385 65.2971ZM263.585 56.1971V54.1971C257.485 54.1971 252.166 54.3646 247.636 54.7027L247.785 56.6971L247.934 58.6916C252.337 58.363 257.552 58.1971 263.585 58.1971V56.1971ZM247.785 56.6971H245.785V119.697H247.785H249.785V56.6971H247.785ZM247.785 119.697L247.541 121.682C251.994 122.23 258.122 122.497 265.885 122.497V120.497V118.497C258.182 118.497 252.243 118.231 248.029 117.712L247.785 119.697ZM263.585 51.7971V53.7971C274.13 53.7971 282.829 57.0718 289.825 63.5632L291.185 62.0971L292.546 60.6311C284.741 53.3891 275.04 49.7971 263.585 49.7971V51.7971ZM291.185 62.0971L289.832 63.5698C296.75 69.9268 300.285 78.6209 300.285 89.8971H302.285H304.285C304.285 77.7066 300.421 67.8675 292.538 60.6245L291.185 62.0971ZM302.285 89.8971H300.285C300.285 95.6137 299.354 100.609 297.541 104.922L299.385 105.697L301.229 106.472C303.283 101.585 304.285 96.0472 304.285 89.8971H302.285ZM299.385 105.697L297.536 104.936C295.778 109.206 293.361 112.554 290.317 115.051L291.585 116.597L292.853 118.144C296.476 115.173 299.259 111.255 301.235 106.459L299.385 105.697ZM291.585 116.597L290.33 115.04C283.876 120.241 275.774 122.897 265.885 122.897V124.897V126.897C276.53 126.897 285.561 124.02 292.84 118.154L291.585 116.597ZM265.885 124.897V122.897C259.222 122.897 251.647 122.534 243.156 121.804L242.985 123.797L242.814 125.79C251.39 126.527 259.082 126.897 265.885 126.897V124.897ZM242.985 123.797H244.985V52.4971H242.985H240.985V123.797H242.985ZM242.985 52.4971L243.122 54.4924C249.876 54.0289 256.697 53.7971 263.585 53.7971V51.7971V49.7971C256.607 49.7971 249.695 50.032 242.848 50.5018L242.985 52.4971ZM327.352 99.1971V97.1971H326.017L325.505 98.43L327.352 99.1971ZM317.052 123.997V125.997H318.387L318.899 124.764L317.052 123.997ZM311.952 123.997L310.106 123.226L308.948 125.997H311.952V123.997ZM342.052 51.9971V49.9971H340.72L340.206 51.2257L342.052 51.9971ZM344.852 51.9971L346.696 51.2235L346.181 49.9971H344.852V51.9971ZM375.052 123.997V125.997H378.059L376.896 123.224L375.052 123.997ZM369.652 123.997L367.805 124.764L368.317 125.997H369.652V123.997ZM359.352 99.1971L361.199 98.43L360.687 97.1971H359.352V99.1971ZM343.152 59.9971H345.152V55.1687L341.737 58.5829L343.152 59.9971ZM342.752 61.1971L344.653 61.8163L344.668 61.7702L344.681 61.7234L342.752 61.1971ZM340.052 68.4971L338.216 67.7019L338.21 67.7173L338.203 67.7328L340.052 68.4971ZM329.052 95.0971L327.203 94.3328L326.06 97.0971H329.052V95.0971ZM357.652 95.0971V97.0971H360.647L359.499 94.3304L357.652 95.0971ZM346.652 68.5971L348.499 67.8304L348.484 67.7952L348.468 67.7605L346.652 68.5971ZM327.352 99.1971L325.505 98.43L315.205 123.23L317.052 123.997L318.899 124.764L329.199 99.9642L327.352 99.1971ZM317.052 123.997V121.997H311.952V123.997V125.997H317.052V123.997ZM311.952 123.997L313.797 124.769L343.897 52.7685L342.052 51.9971L340.206 51.2257L310.106 123.226L311.952 123.997ZM342.052 51.9971V53.9971H344.852V51.9971V49.9971H342.052V51.9971ZM344.852 51.9971L343.007 52.7707L373.207 124.771L375.052 123.997L376.896 123.224L346.696 51.2235L344.852 51.9971ZM375.052 123.997V121.997H369.652V123.997V125.997H375.052V123.997ZM369.652 123.997L371.499 123.23L361.199 98.43L359.352 99.1971L357.505 99.9642L367.805 124.764L369.652 123.997ZM359.352 99.1971V97.1971H327.352V99.1971V101.197H359.352V99.1971ZM343.152 59.9971L341.737 58.5829C341.531 58.7889 341.415 58.995 341.375 59.0665C341.32 59.1656 341.279 59.2566 341.251 59.3218C341.194 59.4533 341.145 59.5915 341.104 59.7147C341.02 59.967 340.925 60.2919 340.822 60.6709L342.752 61.1971L344.681 61.7234C344.778 61.369 344.85 61.1272 344.899 60.9796C344.925 60.9028 344.934 60.8826 344.927 60.8975C344.924 60.9043 344.906 60.9474 344.872 61.009C344.854 61.041 344.825 61.0915 344.783 61.152C344.744 61.2082 344.672 61.3047 344.566 61.4113L343.152 59.9971ZM342.752 61.1971L340.85 60.578C339.929 63.4057 339.051 65.7766 338.216 67.7019L340.052 68.4971L341.887 69.2923C342.786 67.2177 343.707 64.7219 344.653 61.8163L342.752 61.1971ZM340.052 68.4971L338.203 67.7328L327.203 94.3328L329.052 95.0971L330.9 95.8614L341.9 69.2614L340.052 68.4971ZM329.052 95.0971V97.0971H357.652V95.0971V93.0971H329.052V95.0971ZM357.652 95.0971L359.499 94.3304L348.499 67.8304L346.652 68.5971L344.804 69.3639L355.804 95.8639L357.652 95.0971ZM346.652 68.5971L348.468 67.7605C347.306 65.2366 346.445 63.2851 345.879 61.8932C345.595 61.1949 345.395 60.6627 345.269 60.2825C345.111 59.8031 345.152 59.7944 345.152 59.9971H343.152H341.152C341.152 60.5332 341.338 61.1328 341.471 61.5367C341.637 62.0398 341.875 62.666 342.174 63.401C342.774 64.8759 343.664 66.891 344.835 69.4337L346.652 68.5971Z" fill="#FFFFFF" mask="url(#path-6-outside-2_1_39)"/>
</svg>
